<svg width="394" height="70" viewBox="0 0 394 70" fill="none" xmlns="http://www.w3.org/2000/svg">
<path d="M37.2005 22.5433L49.1357 25.7208M34.6455 32.0334L40.6105 33.6234M34.943 49.9162L37.328 50.5537C44.0781 52.3537 47.4532 53.2512 50.1132 51.7237C52.7707 50.1987 53.6757 46.8411 55.4833 40.131L58.0408 30.6384C59.8508 23.9258 60.7533 20.5707 59.2183 17.9257C57.6833 15.2807 54.3108 14.3831 47.5582 12.5856L45.1731 11.9481C38.423 10.1481 35.048 9.25056 32.3904 10.7781C29.7304 12.3031 28.8254 15.6607 27.0153 22.3708L24.4603 31.8634C22.6503 38.576 21.7453 41.931 23.2828 44.5761C24.8178 47.2186 28.1929 48.1186 34.943 49.9162Z" stroke="#4B9FFF" stroke-width="6" stroke-linecap="round"/>
<path d="M35.0004 57.3663L32.6204 58.0163C25.8853 59.8488 22.5203 60.7663 19.8652 59.2088C17.2152 57.6538 16.3102 54.2312 14.5076 47.3886L11.9551 37.7085C10.1501 30.8659 9.24756 27.4433 10.7801 24.7483C12.1051 22.4158 15.0001 22.5008 18.7502 22.5008" stroke="#4B9FFF" stroke-width="6" stroke-linecap="round"/>
<path d="M107.142 21.9107V51.0016H101.83L89.1733 32.6919H88.9602V51.0016H82.8097V21.9107H88.2074L100.764 40.2061H101.02V21.9107H107.142ZM121.968 51.4277C119.762 51.4277 117.853 50.959 116.244 50.0215C114.643 49.0745 113.407 47.7582 112.536 46.0726C111.665 44.3775 111.229 42.4126 111.229 40.1777C111.229 37.9239 111.665 35.9542 112.536 34.2686C113.407 32.5736 114.643 31.2573 116.244 30.3198C117.853 29.3728 119.762 28.8993 121.968 28.8993C124.174 28.8993 126.078 29.3728 127.678 30.3198C129.288 31.2573 130.529 32.5736 131.4 34.2686C132.271 35.9542 132.707 37.9239 132.707 40.1777C132.707 42.4126 132.271 44.3775 131.4 46.0726C130.529 47.7582 129.288 49.0745 127.678 50.0215C126.078 50.959 124.174 51.4277 121.968 51.4277ZM121.996 46.7402C123 46.7402 123.838 46.4561 124.511 45.888C125.183 45.3103 125.69 44.5243 126.031 43.53C126.381 42.5357 126.556 41.404 126.556 40.1351C126.556 38.8662 126.381 37.7345 126.031 36.7402C125.69 35.7459 125.183 34.9599 124.511 34.3823C123.838 33.8046 123 33.5158 121.996 33.5158C120.983 33.5158 120.131 33.8046 119.44 34.3823C118.758 34.9599 118.242 35.7459 117.891 36.7402C117.55 37.7345 117.38 38.8662 117.38 40.1351C117.38 41.404 117.55 42.5357 117.891 43.53C118.242 44.5243 118.758 45.3103 119.44 45.888C120.131 46.4561 120.983 46.7402 121.996 46.7402ZM148.246 29.1834V33.7289H135.107V29.1834H148.246ZM138.09 23.9561H144.141V44.297C144.141 44.8558 144.227 45.2914 144.397 45.6039C144.567 45.9069 144.804 46.12 145.107 46.2431C145.42 46.3662 145.78 46.4277 146.187 46.4277C146.471 46.4277 146.755 46.404 147.039 46.3567C147.323 46.2999 147.541 46.2573 147.692 46.2289L148.644 50.7317C148.341 50.8264 147.915 50.9353 147.366 51.0584C146.817 51.191 146.149 51.2715 145.363 51.2999C143.905 51.3567 142.626 51.1626 141.528 50.7175C140.439 50.2724 139.591 49.5811 138.985 48.6436C138.379 47.7061 138.081 46.5224 138.09 45.0925V23.9561ZM161.897 51.4277C159.653 51.4277 157.721 50.9732 156.102 50.0641C154.492 49.1455 153.251 47.8482 152.38 46.172C151.509 44.4864 151.073 42.4931 151.073 40.1919C151.073 37.9476 151.509 35.9779 152.38 34.2828C153.251 32.5878 154.478 31.2667 156.059 30.3198C157.65 29.3728 159.515 28.8993 161.656 28.8993C163.095 28.8993 164.435 29.1313 165.675 29.5953C166.925 30.0499 168.014 30.7364 168.942 31.655C169.88 32.5736 170.609 33.7289 171.13 35.1209C171.651 36.5035 171.911 38.1228 171.911 39.9789V41.6408H153.488V37.8908H166.215C166.215 37.0196 166.026 36.2478 165.647 35.5755C165.268 34.9031 164.743 34.3775 164.07 33.9987C163.407 33.6105 162.636 33.4164 161.755 33.4164C160.836 33.4164 160.022 33.6294 159.312 34.0556C158.611 34.4722 158.062 35.0357 157.664 35.7459C157.266 36.4467 157.063 37.2279 157.053 38.0897V41.655C157.053 42.7345 157.252 43.6673 157.65 44.4533C158.057 45.2393 158.63 45.8453 159.369 46.2715C160.107 46.6976 160.983 46.9107 161.996 46.9107C162.669 46.9107 163.284 46.816 163.843 46.6266C164.402 46.4372 164.88 46.1531 165.278 45.7743C165.675 45.3955 165.978 44.9315 166.187 44.3823L171.783 44.7516C171.499 46.0963 170.917 47.2705 170.036 48.2743C169.165 49.2686 168.038 50.0451 166.656 50.6039C165.282 51.1531 163.696 51.4277 161.897 51.4277ZM194.013 35.405L188.474 35.7459C188.379 35.2724 188.175 34.8463 187.863 34.4675C187.55 34.0792 187.138 33.7715 186.627 33.5442C186.125 33.3075 185.524 33.1891 184.823 33.1891C183.886 33.1891 183.095 33.388 182.451 33.7857C181.807 34.1739 181.485 34.6948 181.485 35.3482C181.485 35.869 181.693 36.3094 182.11 36.6692C182.527 37.029 183.242 37.3179 184.255 37.5357L188.204 38.3311C190.325 38.7667 191.906 39.4675 192.948 40.4334C193.99 41.3993 194.511 42.6683 194.511 44.2402C194.511 45.6701 194.089 46.9249 193.246 48.0044C192.413 49.084 191.267 49.9268 189.809 50.5328C188.36 51.1294 186.689 51.4277 184.795 51.4277C181.906 51.4277 179.605 50.8264 177.891 49.6237C176.187 48.4116 175.188 46.7639 174.894 44.6806L180.846 44.3681C181.026 45.2487 181.461 45.9211 182.153 46.3851C182.844 46.8397 183.729 47.0669 184.809 47.0669C185.87 47.0669 186.722 46.8633 187.366 46.4561C188.019 46.0395 188.351 45.5044 188.36 44.851C188.351 44.3018 188.119 43.852 187.664 43.5016C187.21 43.1417 186.509 42.8671 185.562 42.6777L181.783 41.9249C179.653 41.4987 178.067 40.7601 177.025 39.709C175.993 38.6578 175.477 37.3179 175.477 35.6891C175.477 34.2876 175.855 33.0802 176.613 32.0669C177.38 31.0537 178.455 30.2724 179.837 29.7232C181.229 29.1739 182.858 28.8993 184.724 28.8993C187.479 28.8993 189.648 29.4817 191.229 30.6465C192.82 31.8112 193.748 33.3974 194.013 35.405ZM206.585 26.9817V21.9107H230.477V26.9817H221.57V51.0016H215.491V26.9817H206.585ZM240.991 51.4277C238.785 51.4277 236.877 50.959 235.267 50.0215C233.667 49.0745 232.431 47.7582 231.56 46.0726C230.688 44.3775 230.253 42.4126 230.253 40.1777C230.253 37.9239 230.688 35.9542 231.56 34.2686C232.431 32.5736 233.667 31.2573 235.267 30.3198C236.877 29.3728 238.785 28.8993 240.991 28.8993C243.198 28.8993 245.101 29.3728 246.702 30.3198C248.312 31.2573 249.552 32.5736 250.423 34.2686C251.295 35.9542 251.73 37.9239 251.73 40.1777C251.73 42.4126 251.295 44.3775 250.423 46.0726C249.552 47.7582 248.312 49.0745 246.702 50.0215C245.101 50.959 243.198 51.4277 240.991 51.4277ZM241.02 46.7402C242.024 46.7402 242.862 46.4561 243.534 45.888C244.206 45.3103 244.713 44.5243 245.054 43.53C245.404 42.5357 245.58 41.404 245.58 40.1351C245.58 38.8662 245.404 37.7345 245.054 36.7402C244.713 35.7459 244.206 34.9599 243.534 34.3823C242.862 33.8046 242.024 33.5158 241.02 33.5158C240.007 33.5158 239.154 33.8046 238.463 34.3823C237.781 34.9599 237.265 35.7459 236.915 36.7402C236.574 37.7345 236.403 38.8662 236.403 40.1351C236.403 41.404 236.574 42.5357 236.915 43.53C237.265 44.5243 237.781 45.3103 238.463 45.888C239.154 46.4561 240.007 46.7402 241.02 46.7402ZM265.494 59.638C263.534 59.638 261.853 59.3681 260.452 58.8283C259.06 58.298 257.952 57.5736 257.128 56.655C256.304 55.7364 255.769 54.7042 255.523 53.5584L261.119 52.8056C261.29 53.2412 261.56 53.6484 261.929 54.0272C262.298 54.4059 262.786 54.709 263.392 54.9362C264.008 55.173 264.756 55.2914 265.636 55.2914C266.953 55.2914 268.037 54.9694 268.889 54.3255C269.751 53.691 270.182 52.6256 270.182 51.1294V47.138H269.926C269.661 47.744 269.263 48.3169 268.733 48.8567C268.203 49.3965 267.521 49.8368 266.688 50.1777C265.854 50.5186 264.86 50.6891 263.705 50.6891C262.066 50.6891 260.575 50.3103 259.23 49.5527C257.895 48.7857 256.83 47.6162 256.034 46.0442C255.248 44.4628 254.855 42.4647 254.855 40.0499C254.855 37.5783 255.258 35.5139 256.062 33.8567C256.867 32.1995 257.938 30.959 259.273 30.1351C260.617 29.3112 262.09 28.8993 263.69 28.8993C264.912 28.8993 265.935 29.1076 266.759 29.5243C267.582 29.9315 268.245 30.4429 268.747 31.0584C269.259 31.6645 269.652 32.2611 269.926 32.8482H270.153V29.1834H276.162V51.2147C276.162 53.0707 275.707 54.6237 274.798 55.8737C273.889 57.1237 272.63 58.0612 271.02 58.6862C269.42 59.3207 267.578 59.638 265.494 59.638ZM265.622 46.1436C266.598 46.1436 267.421 45.9022 268.094 45.4192C268.776 44.9268 269.296 44.226 269.656 43.3169C270.026 42.3984 270.21 41.2999 270.21 40.0215C270.21 38.7431 270.03 37.6351 269.67 36.6976C269.311 35.7506 268.79 35.0167 268.108 34.4959C267.426 33.9751 266.598 33.7147 265.622 33.7147C264.628 33.7147 263.79 33.9845 263.108 34.5243C262.426 35.0546 261.91 35.7933 261.56 36.7402C261.209 37.6872 261.034 38.7809 261.034 40.0215C261.034 41.2809 261.209 42.37 261.56 43.2885C261.92 44.1976 262.436 44.9031 263.108 45.405C263.79 45.8974 264.628 46.1436 265.622 46.1436ZM290.92 51.4277C288.676 51.4277 286.744 50.9732 285.125 50.0641C283.515 49.1455 282.275 47.8482 281.403 46.172C280.532 44.4864 280.097 42.4931 280.097 40.1919C280.097 37.9476 280.532 35.9779 281.403 34.2828C282.275 32.5878 283.501 31.2667 285.082 30.3198C286.673 29.3728 288.539 28.8993 290.679 28.8993C292.118 28.8993 293.458 29.1313 294.699 29.5953C295.949 30.0499 297.038 30.7364 297.966 31.655C298.903 32.5736 299.633 33.7289 300.153 35.1209C300.674 36.5035 300.935 38.1228 300.935 39.9789V41.6408H282.511V37.8908H295.239C295.239 37.0196 295.049 36.2478 294.67 35.5755C294.292 34.9031 293.766 34.3775 293.094 33.9987C292.431 33.6105 291.659 33.4164 290.778 33.4164C289.86 33.4164 289.045 33.6294 288.335 34.0556C287.634 34.4722 287.085 35.0357 286.688 35.7459C286.29 36.4467 286.086 37.2279 286.077 38.0897V41.655C286.077 42.7345 286.276 43.6673 286.673 44.4533C287.08 45.2393 287.653 45.8453 288.392 46.2715C289.131 46.6976 290.007 46.9107 291.02 46.9107C291.692 46.9107 292.308 46.816 292.866 46.6266C293.425 46.4372 293.903 46.1531 294.301 45.7743C294.699 45.3955 295.002 44.9315 295.21 44.3823L300.807 44.7516C300.523 46.0963 299.94 47.2705 299.06 48.2743C298.188 49.2686 297.062 50.0451 295.679 50.6039C294.306 51.1531 292.72 51.4277 290.92 51.4277ZM316.489 29.1834V33.7289H303.349V29.1834H316.489ZM306.332 23.9561H312.384V44.297C312.384 44.8558 312.469 45.2914 312.639 45.6039C312.81 45.9069 313.046 46.12 313.349 46.2431C313.662 46.3662 314.022 46.4277 314.429 46.4277C314.713 46.4277 314.997 46.404 315.281 46.3567C315.565 46.2999 315.783 46.2573 315.935 46.2289L316.886 50.7317C316.583 50.8264 316.157 50.9353 315.608 51.0584C315.059 51.191 314.391 51.2715 313.605 51.2999C312.147 51.3567 310.868 51.1626 309.77 50.7175C308.681 50.2724 307.833 49.5811 307.227 48.6436C306.621 47.7061 306.323 46.5224 306.332 45.0925V23.9561ZM326.95 38.388V51.0016H320.899V21.9107H326.78V33.0328H327.036C327.528 31.745 328.323 30.7364 329.422 30.0073C330.52 29.2686 331.898 28.8993 333.555 28.8993C335.071 28.8993 336.392 29.2308 337.518 29.8936C338.655 30.547 339.536 31.4893 340.161 32.7203C340.795 33.9419 341.107 35.405 341.098 37.1095V51.0016H335.047V38.1891C335.056 36.8444 334.715 35.798 334.024 35.0499C333.342 34.3018 332.386 33.9277 331.155 33.9277C330.331 33.9277 329.602 34.1029 328.967 34.4533C328.342 34.8037 327.85 35.315 327.49 35.9874C327.14 36.6503 326.96 37.4505 326.95 38.388ZM355.803 51.4277C353.559 51.4277 351.627 50.9732 350.008 50.0641C348.398 49.1455 347.157 47.8482 346.286 46.172C345.415 44.4864 344.979 42.4931 344.979 40.1919C344.979 37.9476 345.415 35.9779 346.286 34.2828C347.157 32.5878 348.384 31.2667 349.965 30.3198C351.556 29.3728 353.422 28.8993 355.562 28.8993C357.001 28.8993 358.341 29.1313 359.582 29.5953C360.832 30.0499 361.921 30.7364 362.849 31.655C363.786 32.5736 364.515 33.7289 365.036 35.1209C365.557 36.5035 365.817 38.1228 365.817 39.9789V41.6408H347.394V37.8908H360.121C360.121 37.0196 359.932 36.2478 359.553 35.5755C359.174 34.9031 358.649 34.3775 357.977 33.9987C357.314 33.6105 356.542 33.4164 355.661 33.4164C354.743 33.4164 353.928 33.6294 353.218 34.0556C352.517 34.4722 351.968 35.0357 351.57 35.7459C351.173 36.4467 350.969 37.2279 350.96 38.0897V41.655C350.96 42.7345 351.158 43.6673 351.556 44.4533C351.963 45.2393 352.536 45.8453 353.275 46.2715C354.013 46.6976 354.889 46.9107 355.903 46.9107C356.575 46.9107 357.191 46.816 357.749 46.6266C358.308 46.4372 358.786 46.1531 359.184 45.7743C359.582 45.3955 359.885 44.9315 360.093 44.3823L365.69 44.7516C365.406 46.0963 364.823 47.2705 363.942 48.2743C363.071 49.2686 361.944 50.0451 360.562 50.6039C359.189 51.1531 357.603 51.4277 355.803 51.4277ZM369.766 51.0016V29.1834H375.633V32.9902H375.86C376.258 31.6361 376.925 30.6133 377.863 29.922C378.8 29.2213 379.88 28.8709 381.102 28.8709C381.405 28.8709 381.731 28.8898 382.082 28.9277C382.432 28.9656 382.74 29.0177 383.005 29.084V34.4533C382.721 34.3681 382.328 34.2923 381.826 34.226C381.324 34.1597 380.865 34.1266 380.448 34.1266C379.558 34.1266 378.763 34.3207 378.062 34.709C377.371 35.0878 376.821 35.6181 376.414 36.2999C376.016 36.9817 375.817 37.7677 375.817 38.6578V51.0016H369.766Z" fill="#4B9FFF"/>
</svg>
